<svg enable-background="new 0 0 256 256" viewBox="0 0 256 256" xmlns="http://www.w3.org/2000/svg"><path d="m116.7 10.3c-27.8 2.8-52.7 14.6-72.3 34.2-18.8 18.8-29.9 41.5-33.9 69-.9 6.3-.7 24.1.3 30.7 2 13.4 5.5 24.5 11.2 36 6.2 12.5 13.1 22 22.9 31.7 9.7 9.7 18.7 16 31.1 22.1 11.7 5.7 21.3 8.8 34.5 10.9 7.4 1.2 25.1 1.4 32 .5 14.1-2 25.5-5.5 37.4-11.4 12.9-6.4 22.1-13 32-23 9.7-9.8 15.8-18.5 22.1-31.1 5.8-11.8 9.4-23.7 11.4-37.4.7-5.5.8-23.7 0-29.1-2-13.9-5.5-25.6-11.4-37.4-6.3-12.7-12.4-21.3-22.1-31.1-18.4-18.6-40.8-29.9-67.3-34-5.8-.9-22-1.3-27.9-.6zm-.5 63.2 11.8 2.4 11.8-2.4 11.8-2.4 14.3 2.9 14.3 2.9v4.3 4.3h9.5 9.5v52 52h-71.2-71.1v-52-52h9.5 9.5v-4.3-4.3l13.8-2.8c7.5-1.5 14-2.8 14.3-2.8.2-.1 5.8 1 12.2 2.2z"/><path d="m94.3 82.8c-4.7 1-8.6 1.8-8.6 1.8-.1 0-.1 17-.1 37.6 0 30.8.1 37.6.6 37.6.3 0 4.6-.8 9.5-1.8l8.9-1.8 8.9 1.8c4.9 1 9.1 1.8 9.5 1.8.5 0 .6-6.9.6-37.6 0-20.7 0-37.6-.1-37.6s-4.3-.8-9.3-1.8-9.6-1.8-10.1-1.8c-.9 0-5.1.8-9.8 1.8z"/><path d="m143.9 82.3c-3.6.7-7.6 1.6-8.9 1.8l-2.4.5v37.7c0 30.7.1 37.6.6 37.6.3 0 4.6-.8 9.5-1.8l8.9-1.8 8.9 1.8c4.9 1 9.1 1.8 9.5 1.8.5 0 .6-6.9.6-37.6v-37.7l-1-.2c-3.9-.9-17.3-3.5-18.1-3.4-.7 0-4 .6-7.6 1.3z"/><path d="m66.6 137.5v42.7h28.4 28.4v-5.2-5.2l-9.5-1.9-9.5-1.9-13.7 2.7c-7.5 1.5-14 2.8-14.3 2.8-.5 0-.6-7.3-.6-38.3v-38.4h-4.6-4.6z"/><path d="m180.2 133.1c0 31.1-.1 38.3-.6 38.3-.3 0-6.8-1.2-14.3-2.8l-13.8-2.7-9.4 1.9-9.5 1.9v5.2 5.2h28.4 28.4v-42.7-42.6h-4.6-4.6z"/></svg>